<?xml version="1.0" encoding="UTF-8"?>
<svg id="_レイヤー_1" data-name="レイヤー_1" xmlns="http://www.w3.org/2000/svg" version="1.1" viewBox="0 0 1933.23 1207.56">
  <!-- Generator: Adobe Illustrator 30.2.1, SVG Export Plug-In . SVG Version: 2.1.1 Build 1)  -->
  <defs>
    <style>
      .st0, .st1 {
        fill: #9b001b;
        stroke: #9b001b;
      }

      .st2, .st3 {
        fill: #231815;
      }

      .st1 {
        fill-rule: evenodd;
      }

      .st4 {
        fill: #004498;
      }

      .st3 {
        font-family: KozGoPr6N-Regular-90ms-RKSJ-H, 'Kozuka Gothic Pr6N';
        font-size: 314.99px;
      }
    </style>
  </defs>
  <g>
    <path class="st4" d="M369.2,713.72l67.04-144.4c2.74-6.06,10.15-10.81,18.43-10.03,4.37.43,22.05,1.37,36.04,7.5,34.92,15.32,34.57,46.63-1.45,63.6-46.66,21.97-93.15,17.82-130.85,3.95-12.59-4.66-40.99-20.95-40.54-42.47.69-31.84,37.21-40.7,58.67-43.93,1.87-.28,1.79-.62-.03-.6-23.72.36-42.52,6.72-55.53,15.64-20.52,14.1-33.12,43.2-10.85,69.02,42.79,49.65,134.11,51.19,196.84,29.94,84.19-28.53,86.62-93.33,42.22-130.83-41.15-34.8-99.56-38.41-123.31-38.03-8.63.16-20.55,1.57-22.1,15.82l-35.84,204.17c-.35,1.71.65,1.89,1.26.66"/>
    <path class="st2" d="M663.96,578.44c4.22-10.33-2.84-19.34-6.31-21.66h146.52c18.11.26,44.99,10.17,36.78,30.96l-10.19,25.72c-5.43,12.18-36.44,24.8-56.1,24.8h-72.92l6.55-18.16h73.93l18.29-46.66h-87.83l-36.02,92.26c-10.56,30.97-52.81,30.97-61.86,30.97,0,0,9.05-19.16,15.08-32.45l34.07-85.77M882.67,537.05l-39.7,102.01h46.91l25.51-65.58h74.57l-25.27,65.56h46.1l20.37-51.35c4.24-10.61-4.76-30.23-30.65-30.49h-78.66l15.25-40.03c.49-1.66-.38-4.98-2.73-4.98h-59.31c8.02,5.94,10.05,17.9,7.63,24.86M1112.37,561.33c.48-1.66-.35-4.99-2.78-4.99h-59.25c7.98,5.94,10.03,17.9,7.6,24.86l-22.17,57.86h46.43l30.17-77.74ZM1130.81,523.47c-1.23-9.49-17.9-15.28-37.28-12.92-19.36,2.35-34.09,11.95-32.87,21.47,1.2,9.48,17.89,15.29,37.24,12.91,19.38-2.36,34.09-11.96,32.9-21.46M1125.48,556.63c8.29,4.36,6.2,13.55,6.23,16.1h23.33l-24.21,62.32c-.23,2.32-.71,4.01-.37,4.01h88.41l7.38-18.43h-44.01l18.72-47.9h43.89s5.16-13.12,7.82-15.6h-45.63l8.27-21.4h-45.9l-8.06,20.9h-35.86ZM1459.59,556.51c8.02,5.96,10.06,17.9,7.62,24.86l-22.43,57.69h50.36l25.52-66.17h68.94l-25.68,66.1h50.3l19.66-51.89c5.12-14.22-9.88-30.2-35.78-30.47l-138.51-.12ZM1294.44,605.9h136.55s3.77-8.49,9.82-24.52c6.04-16.04-23.32-24.9-33.58-24.7h-91.84c-25.64,0-52.02,17.6-56.17,27.75l-10.03,25.7c-5.09,14.75,19.05,28.4,34,28.94h134.65l7.32-17.5h-129.52l19.17-49.38h82.8l-7.61,19.52h-89.51l-6.04,14.2Z"/>
  </g>
  <g>
    <path class="st0" d="M733.43,1715.73c0-49.34-49.34-51.8-49.34-51.8h-148.01v34.53h147.19c18.09,0,17.27,16.45,17.27,16.45,0,16.45-15.63,16.45-15.63,16.45h-59.21v-18.92h-31.25v74.01c0,14.8-13.16,16.45-13.16,16.45h-44.4v32.07h43.58c18.91,0,33.71-13.98,33.71-13.98,13.16-13.16,11.51-37,11.51-37v-18.92h58.38c49.34,0,49.34-49.34,49.34-49.34Z"/>
    <path class="st0" d="M861.71,1665.57c-14.8,0-37.01,13.98-37.01,13.98-24.67,13.98-60.85,69.9-60.85,69.9-29.6,43.58-78.12,35.36-78.12,35.36v32.07c43.58.82,67.43-14.8,85.52-28.78v46.05h30.43v-84.7c32.07-52.63,63.32-51.81,63.32-51.81h15.62v-32.07h-18.91Z"/>
    <path class="st0" d="M1010.55,1683.66c-21.38,14.8-27.14,24.67-41.11,44.41l-62.5-33.72-14.8,27.14,59.2,32.07c-12.33,17.27-30.43,31.25-30.43,31.25-26.31,19.73-51.8,18.91-51.8,18.91v30.43c32.89,0,68.25-23.02,68.25-23.02,15.62-9.87,25.49-22.2,41.12-42.76l51.81,27.14,16.45-26.32-48.52-25.49c9.87-13.98,18.91-25.49,24.67-30.42,17.27-15.63,41.12-13.16,41.12-13.16l1.64-33.71c-27.14-2.46-55.09,17.27-55.09,17.27Z"/>
    <path class="st0" d="M1234.21,1787.27v-60.85l-87.16.82v57.56s.82,26.31-13.98,37.82c0,0-14.8,13.15-32.89,13.15h-20.56v-31.25h22.2s14.8-5.75,14.8-19.73v-58.39h-37v-32.07l37.83.82v-31.25h29.6v31.25l120.06-.82v90.46c0,15.62,0,21.38-9.05,36.18-9.87,15.62-39.47,14.8-39.47,14.8h-20.56v-31.25h21.38s14.8,2.47,14.8-17.27Z"/>
    <path class="st1" d="M1235.04,1667.21h23.02v18.09h-23.02v-18.09ZM1194.74,1667.21h23.85v18.09h-23.85v-18.09Z"/>
    <path class="st0" d="M1394.56,1695.17v-27.14h-32.07v27.14h-82.23v32.07h142.26c-20.56,25.49-61.67,35.36-61.67,35.36-37.83,10.69-80.59,12.33-80.59,12.33l.82,31.25s42.76-.82,79.76-9.05v38.65h33.71v-42.76c32.07,13.98,80.58,12.33,80.58,12.33v-30.43c-25.49,0-38.65-3.29-49.34-7.4,20.56-15.62,48.52-41.12,50.16-72.36h-81.41Z"/>
    <path class="st1" d="M1235.04,1667.21h23.02v18.09h-23.02v-18.09ZM1194.74,1667.21h23.85v18.09h-23.85v-18.09Z"/>
    <path class="st0" d="M268.83,1626.92c39.47,0,74.83,19.74,95.39,50.16v-8.22c-.82-51.81-43.58-93.74-95.39-93.74-13.98,0-25.49,11.51-25.49,26.31,0,13.98,11.51,25.49,25.49,25.49Z"/>
    <path class="st0" d="M393.82,1662.28v121.7c-17.27-6.58-29.6-22.2-29.6-41.94v-62.5c-.82,9.87-12.33,14.8-18.91,5.76-17.27-23.85-45.23-38.65-76.47-38.65-52.63,0-95.39,42.76-95.39,95.39s42.76,95.39,95.39,95.39c20.56,0,39.47-5.76,55.09-17.27-12.33-12.34-20.56-27.96-26.32-44.41-7.4,6.58-17.27,10.69-28.78,10.69-24.67,0-44.4-19.73-44.4-44.4s19.73-43.58,44.4-43.58,44.4,19.74,44.4,43.58c0,52.63,42.76,95.39,95.39,95.39h32.07v-175.15h-46.87Z"/>
    <path class="st0" d="M416.85,1575.12c-18.09,0-32.89,15.62-32.89,33.71s14.8,32.89,32.89,32.89,33.71-14.8,33.71-32.89-14.8-33.71-33.71-33.71Z"/>
  </g>
  <text class="st3" transform="translate(2072.1 2493.21)"><tspan x="0" y="0">×</tspan></text>
  <text/>
</svg>