<?xml version="1.0" encoding="UTF-8"?>
<svg id="_レイヤー_1" xmlns="http://www.w3.org/2000/svg" version="1.1" viewBox="50 320 920 280">
  <!-- Generator: Adobe Illustrator 30.2.1, SVG Export Plug-In . SVG Version: 2.1.1 Build 1)  -->
  <defs>
    <style>
      .st0, .st1 {
        fill: #231815;
      }

      .st2, .st3 {
        fill: #9b001b;
        stroke: #9b001b;
      }

      .st3 {
        fill-rule: evenodd;
      }

      .st4, .st1 {
        isolation: isolate;
      }

      .st1 {
        font-family: KozGoPr6N-Bold-90ms-RKSJ-H, 'Kozuka Gothic Pr6N';
        font-size: 314.99px;
        font-weight: 700;
      }

      .st5 {
        fill: #004498;
      }
    </style>
  </defs>
  <g>
    <path class="st5" d="M1607.36,931.56l67.04-144.4c2.74-6.06,10.15-10.81,18.43-10.03,4.37.43,22.05,1.37,36.04,7.5,34.92,15.32,34.57,46.63-1.45,63.6-46.66,21.97-93.15,17.82-130.85,3.95-12.59-4.66-40.99-20.95-40.54-42.47.69-31.84,37.21-40.7,58.67-43.93,1.87-.28,1.79-.62-.03-.6-23.72.36-42.52,6.72-55.53,15.64-20.52,14.1-33.12,43.2-10.85,69.02,42.79,49.65,134.11,51.19,196.84,29.94,84.19-28.53,86.62-93.33,42.22-130.83-41.15-34.8-99.56-38.41-123.31-38.03-8.63.16-20.55,1.57-22.1,15.82l-35.84,204.17c-.35,1.71.65,1.89,1.26.66"/>
    <path class="st0" d="M1902.12,796.27c4.22-10.33-2.84-19.34-6.31-21.66h146.52c18.11.26,44.99,10.17,36.78,30.96l-10.19,25.72c-5.43,12.18-36.44,24.8-56.1,24.8h-72.92l6.55-18.16h73.93l18.29-46.66h-87.83l-36.02,92.26c-10.56,30.97-52.81,30.97-61.86,30.97,0,0,9.05-19.16,15.08-32.45l34.07-85.77M2120.83,754.89l-39.7,102.01h46.91l25.51-65.58h74.57l-25.27,65.56h46.1l20.37-51.35c4.24-10.61-4.76-30.23-30.65-30.49h-78.66l15.25-40.03c.49-1.66-.38-4.98-2.73-4.98h-59.31c8.02,5.94,10.05,17.9,7.63,24.86M2350.53,779.16c.48-1.66-.35-4.99-2.78-4.99h-59.25c7.98,5.94,10.03,17.9,7.6,24.86l-22.17,57.86h46.43l30.17-77.74h0ZM2368.97,741.31c-1.23-9.49-17.9-15.28-37.28-12.92-19.36,2.35-34.09,11.95-32.87,21.47,1.2,9.48,17.89,15.29,37.24,12.91,19.38-2.36,34.09-11.96,32.9-21.46M2363.64,774.47c8.29,4.36,6.2,13.55,6.23,16.1h23.33l-24.21,62.32c-.23,2.32-.71,4.01-.37,4.01h88.41l7.38-18.43h-44.01l18.72-47.9h43.89s5.16-13.12,7.82-15.6h-45.63l8.27-21.4h-45.9l-8.06,20.9h-35.87ZM2697.75,774.34c8.02,5.96,10.06,17.9,7.62,24.86l-22.43,57.69h50.36l25.52-66.17h68.94l-25.68,66.1h50.3l19.66-51.89c5.12-14.22-9.88-30.2-35.78-30.47l-138.51-.12h0ZM2532.6,823.73h136.55s3.77-8.49,9.82-24.52c6.04-16.04-23.32-24.9-33.58-24.7h-91.84c-25.64,0-52.02,17.6-56.17,27.75l-10.03,25.7c-5.09,14.75,19.05,28.4,34,28.94h134.65l7.32-17.5h-129.52l19.17-49.38h82.8l-7.61,19.52h-89.51l-6.04,14.2h0Z"/>
  </g>
  <g>
    <path class="st2" d="M436.93,447.62c0-37.62-34.09-39.5-34.09-39.5h-102.27v26.33h101.71c12.5,0,11.93,12.54,11.93,12.54,0,12.54-10.8,12.54-10.8,12.54h-40.91v-14.43h-21.59v56.43c0,11.28-9.09,12.54-9.09,12.54h-30.68v24.45h30.11c13.07,0,23.29-10.66,23.29-10.66,9.09-10.03,7.95-28.21,7.95-28.21v-14.43h40.34c34.09,0,34.09-37.62,34.09-37.62h.01Z"/>
    <path class="st2" d="M525.57,409.37c-10.23,0-25.57,10.66-25.57,10.66-17.05,10.66-42.05,53.3-42.05,53.3-20.45,33.23-53.98,26.96-53.98,26.96v24.45c30.11.63,46.59-11.28,59.09-21.94v35.11h21.03v-64.58c22.16-40.13,43.75-39.5,43.75-39.5h10.79v-24.45h-13.07Z"/>
    <path class="st2" d="M628.42,423.17c-14.77,11.28-18.75,18.81-28.41,33.86l-43.19-25.71-10.23,20.69,40.91,24.45c-8.52,13.17-21.03,23.83-21.03,23.83-18.18,15.04-35.79,14.42-35.79,14.42v23.2c22.73,0,47.16-17.55,47.16-17.55,10.79-7.53,17.61-16.93,28.41-32.6l35.8,20.69,11.37-20.07-33.53-19.44c6.82-10.66,13.07-19.44,17.05-23.19,11.93-11.92,28.41-10.03,28.41-10.03l1.13-25.7c-18.75-1.88-38.07,13.17-38.07,13.17v-.02Z"/>
    <path class="st2" d="M782.96,502.17v-46.4l-60.23.63v43.89s.57,20.06-9.66,28.84c0,0-10.23,10.03-22.73,10.03h-14.21v-23.83h15.34s10.23-4.38,10.23-15.04v-44.52h-25.57v-24.45l26.14.63v-23.83h20.45v23.83l82.96-.63v68.97c0,11.91,0,16.3-6.25,27.59-6.82,11.91-27.27,11.28-27.27,11.28h-14.21v-23.83h14.77s10.23,1.88,10.23-13.17v.02Z"/>
    <path class="st3" d="M783.53,410.63h15.91v13.79h-15.91v-13.79ZM755.69,410.63h16.48v13.79h-16.48v-13.79Z"/>
    <path class="st2" d="M893.76,431.95v-20.69h-22.16v20.69h-56.82v24.45h98.3c-14.21,19.44-42.61,26.96-42.61,26.96-26.14,8.15-55.69,9.4-55.69,9.4l.57,23.83s29.55-.63,55.11-6.9v29.47h23.29v-32.6c22.16,10.66,55.68,9.4,55.68,9.4v-23.2c-17.61,0-26.71-2.51-34.09-5.64,14.21-11.91,33.53-31.35,34.66-55.17h-56.25.01Z"/>
    <path class="st3" d="M783.53,410.63h15.91v13.79h-15.91v-13.79ZM755.69,410.63h16.48v13.79h-16.48v-13.79Z"/>
    <path class="st2" d="M115.91,379.91c27.27,0,51.71,15.05,65.91,38.24v-6.27c-.57-39.5-30.11-71.47-65.91-71.47-9.66,0-17.61,8.78-17.61,20.06,0,10.66,7.95,19.44,17.61,19.44Z"/>
    <path class="st2" d="M202.27,406.87v92.79c-11.93-5.02-20.45-16.93-20.45-31.98v-47.65c-.57,7.53-8.52,11.28-13.07,4.39-11.93-18.18-31.25-29.47-52.84-29.47-36.37,0-65.91,32.6-65.91,72.73s29.55,72.73,65.91,72.73c14.21,0,27.27-4.39,38.07-13.17-8.52-9.41-14.21-21.32-18.19-33.86-5.11,5.02-11.93,8.15-19.89,8.15-17.05,0-30.68-15.04-30.68-33.85s13.63-33.23,30.68-33.23,30.68,15.05,30.68,33.23c0,40.13,29.55,72.73,65.91,72.73h22.16v-133.54h-32.39Z"/>
    <path class="st2" d="M218.18,340.41c-12.5,0-22.73,11.91-22.73,25.7s10.23,25.08,22.73,25.08,23.29-11.28,23.29-25.08-10.23-25.7-23.29-25.7h0Z"/>
  </g>
  <g class="st4">
    <text class="st1" transform="translate(1654.66 2471.98)"><tspan x="0" y="0">×</tspan></text>
  </g>
</svg>