<?xml version="1.0" encoding="UTF-8"?>
<svg id="_レイヤー_1" xmlns="http://www.w3.org/2000/svg" version="1.1" viewBox="220 580 940 260">
  <!-- Generator: Adobe Illustrator 30.3.0, SVG Export Plug-In . SVG Version: 2.1.3 Build 182)  -->
  <defs>
    <style>
      .st0 {
        fill: #231815;
      }

      .st1 {
        fill: #004498;
      }
    </style>
  </defs>
  <path class="st1" d="M306.36,807.93l45.14-130.4c1.85-5.47,6.83-9.76,12.41-9.06,2.94.39,14.85,1.24,24.27,6.77,23.51,13.83,23.28,42.11-.98,57.43-31.42,19.84-62.73,16.09-88.11,3.57-8.48-4.21-27.6-18.92-27.3-38.35.46-28.75,25.06-36.75,39.51-39.67,1.26-.25,1.21-.56-.02-.54-15.97.33-28.63,6.07-37.39,14.12-13.82,12.73-22.3,39.01-7.31,62.33,28.81,44.84,90.31,46.23,132.55,27.04,56.69-25.76,58.33-84.28,28.43-118.15-27.71-31.43-67.04-34.69-83.04-34.34-5.81.14-13.84,1.42-14.88,14.29l-24.13,184.38c-.24,1.54.44,1.71.85.6"/>
  <path class="st0" d="M504.85,685.77c2.84-9.33-1.91-17.47-4.25-19.56h98.67c12.2.23,30.3,9.18,24.77,27.96l-6.86,23.23c-3.66,11-24.54,22.4-37.78,22.4h-49.1l4.41-16.4h49.78l12.32-42.14h-59.14l-24.26,83.32c-7.11,27.97-35.56,27.97-41.66,27.97,0,0,6.09-17.3,10.15-29.3l22.94-77.46M652.13,648.39l-26.73,92.12h31.59l17.18-59.22h50.22l-17.02,59.2h31.04l13.72-46.37c2.86-9.58-3.21-27.3-20.64-27.53h-52.97l10.27-36.15c.33-1.5-.26-4.5-1.84-4.5h-39.94c5.4,5.36,6.77,16.16,5.14,22.45M806.81,670.32c.32-1.5-.24-4.51-1.87-4.51h-39.9c5.37,5.36,6.75,16.16,5.12,22.45l-14.93,52.25h31.27l20.32-70.2h-.01ZM819.22,636.13c-.83-8.57-12.05-13.8-25.1-11.67-13.04,2.12-22.96,10.79-22.13,19.39.81,8.56,12.05,13.81,25.08,11.66,13.05-2.13,22.96-10.8,22.15-19.38M815.63,666.07c5.58,3.94,4.18,12.24,4.2,14.54h15.71l-16.3,56.28c-.15,2.1-.48,3.62-.25,3.62h59.53l4.97-16.64h-29.64l12.61-43.26h29.56s3.47-11.85,5.27-14.09h-30.73l5.57-19.33h-30.91l-5.43,18.87h-24.16ZM1040.62,665.96c5.4,5.38,6.77,16.16,5.13,22.45l-15.1,52.1h33.91l17.19-59.76h46.42l-17.29,59.69h33.87l13.24-46.86c3.45-12.84-6.65-27.27-24.09-27.52l-93.27-.11h0ZM929.41,710.57h91.95s2.54-7.67,6.61-22.14c4.07-14.49-15.7-22.49-22.61-22.31h-61.84c-17.27,0-35.03,15.89-37.82,25.06l-6.75,23.21c-3.43,13.32,12.83,25.65,22.9,26.13h90.67l4.93-15.8h-87.22l12.91-44.59h55.76l-5.12,17.63h-60.28l-4.07,12.82h-.02Z"/>
</svg>