<?xml version="1.0" encoding="UTF-8"?>
<svg id="_レイヤー_1" xmlns="http://www.w3.org/2000/svg" version="1.1" viewBox="-20 380 980 260">
  <!-- Generator: Adobe Illustrator 30.2.1, SVG Export Plug-In . SVG Version: 2.1.1 Build 1)  -->
  <defs>
    <style>
      .st0, .st1 {
        fill: #231815;
      }

      .st2, .st3 {
        fill: #9b001b;
        stroke: #9b001b;
      }

      .st3 {
        fill-rule: evenodd;
      }

      .st4, .st1 {
        isolation: isolate;
      }

      .st1 {
        font-family: KozGoPr6N-Bold-90ms-RKSJ-H, 'Kozuka Gothic Pr6N';
        font-size: 314.99px;
        font-weight: 700;
      }

      .st5 {
        fill: #004498;
      }
    </style>
  </defs>
  <g>
    <path class="st5" d="M97.7,599.27l45.14-130.4c1.85-5.47,6.83-9.76,12.41-9.06,2.94.39,14.85,1.24,24.27,6.77,23.51,13.83,23.28,42.11-.98,57.43-31.42,19.84-62.73,16.09-88.11,3.57-8.48-4.21-27.6-18.92-27.3-38.35.46-28.75,25.06-36.75,39.51-39.67,1.26-.25,1.21-.56-.02-.54-15.97.33-28.63,6.07-37.39,14.12-13.82,12.73-22.3,39.01-7.31,62.33,28.81,44.84,90.31,46.23,132.55,27.04,56.69-25.76,58.33-84.28,28.43-118.15-27.71-31.43-67.04-34.69-83.04-34.34-5.81.14-13.84,1.42-14.88,14.29l-24.13,184.38c-.24,1.54.44,1.71.85.6"/>
    <path class="st0" d="M296.19,477.11c2.84-9.33-1.91-17.47-4.25-19.56h98.67c12.2.23,30.3,9.18,24.77,27.96l-6.86,23.23c-3.66,11-24.54,22.4-37.78,22.4h-49.1l4.41-16.4h49.78l12.32-42.14h-59.14l-24.26,83.32c-7.11,27.97-35.56,27.97-41.66,27.97,0,0,6.09-17.3,10.15-29.3l22.94-77.46M443.47,439.73l-26.73,92.12h31.59l17.18-59.22h50.22l-17.02,59.2h31.04l13.72-46.37c2.86-9.58-3.21-27.3-20.64-27.53h-52.97l10.27-36.15c.33-1.5-.26-4.5-1.84-4.5h-39.94c5.4,5.36,6.77,16.16,5.14,22.45M598.15,461.66c.32-1.5-.24-4.51-1.87-4.51h-39.9c5.37,5.36,6.75,16.16,5.12,22.45l-14.93,52.25h31.27l20.32-70.2h0ZM610.56,427.47c-.83-8.57-12.05-13.8-25.1-11.67-13.04,2.12-22.96,10.79-22.13,19.39.81,8.56,12.05,13.81,25.08,11.66,13.05-2.13,22.96-10.8,22.15-19.38M606.97,457.41c5.58,3.94,4.18,12.24,4.2,14.54h15.71l-16.3,56.28c-.15,2.1-.48,3.62-.25,3.62h59.53l4.97-16.64h-29.64l12.61-43.26h29.56s3.47-11.85,5.27-14.09h-30.73l5.57-19.33h-30.91l-5.43,18.87h-24.15ZM831.96,457.3c5.4,5.38,6.77,16.16,5.13,22.45l-15.1,52.1h33.91l17.19-59.76h46.42l-17.29,59.69h33.87l13.24-46.86c3.45-12.84-6.65-27.27-24.09-27.52l-93.27-.11h0ZM720.75,501.91h91.95s2.54-7.67,6.61-22.14c4.07-14.49-15.7-22.49-22.61-22.31h-61.84c-17.27,0-35.03,15.89-37.82,25.06l-6.75,23.21c-3.43,13.32,12.83,25.65,22.9,26.13h90.67l4.93-15.8h-87.22l12.91-44.59h55.76l-5.12,17.63h-60.28l-4.07,12.82h0Z"/>
  </g>
  <g>
    <path class="st2" d="M267.12,1612.09c0-49.34-49.34-51.8-49.34-51.8H69.77v34.53h147.19c18.09,0,17.27,16.45,17.27,16.45,0,16.45-15.63,16.45-15.63,16.45h-59.21v-18.92h-31.25v74.01c0,14.8-13.16,16.45-13.16,16.45h-44.4v32.07h43.58c18.91,0,33.71-13.98,33.71-13.98,13.16-13.16,11.51-37,11.51-37v-18.92h58.38c49.34,0,49.34-49.34,49.34-49.34h.02Z"/>
    <path class="st2" d="M395.4,1561.93c-14.8,0-37.01,13.98-37.01,13.98-24.67,13.98-60.85,69.9-60.85,69.9-29.6,43.58-78.12,35.36-78.12,35.36v32.07c43.58.82,67.43-14.8,85.52-28.78v46.05h30.43v-84.7c32.07-52.63,63.32-51.81,63.32-51.81h15.62v-32.07h-18.91Z"/>
    <path class="st2" d="M544.24,1580.02c-21.38,14.8-27.14,24.67-41.11,44.41l-62.5-33.72-14.8,27.14,59.2,32.07c-12.33,17.27-30.43,31.25-30.43,31.25-26.31,19.73-51.8,18.91-51.8,18.91v30.43c32.89,0,68.25-23.02,68.25-23.02,15.62-9.87,25.49-22.2,41.12-42.76l51.81,27.14,16.45-26.32-48.52-25.49c9.87-13.98,18.91-25.49,24.67-30.42,17.27-15.63,41.12-13.16,41.12-13.16l1.64-33.71c-27.14-2.46-55.09,17.27-55.09,17.27v-.02Z"/>
    <path class="st2" d="M767.9,1683.63v-60.85l-87.16.82v57.56s.82,26.31-13.98,37.82c0,0-14.8,13.15-32.89,13.15h-20.56v-31.25h22.2s14.8-5.75,14.8-19.73v-58.39h-37v-32.07l37.83.82v-31.25h29.6v31.25l120.06-.82v90.46c0,15.62,0,21.38-9.05,36.18-9.87,15.62-39.47,14.8-39.47,14.8h-20.56v-31.25h21.38s14.8,2.47,14.8-17.27v.02Z"/>
    <path class="st3" d="M768.73,1563.57h23.02v18.09h-23.02v-18.09ZM728.43,1563.57h23.85v18.09h-23.85v-18.09Z"/>
    <path class="st2" d="M928.25,1591.53v-27.14h-32.07v27.14h-82.23v32.07h142.26c-20.56,25.49-61.67,35.36-61.67,35.36-37.83,10.69-80.59,12.33-80.59,12.33l.82,31.25s42.76-.82,79.76-9.05v38.65h33.71v-42.76c32.07,13.98,80.58,12.33,80.58,12.33v-30.43c-25.49,0-38.65-3.29-49.34-7.4,20.56-15.62,48.52-41.12,50.16-72.36h-81.41.02Z"/>
    <path class="st3" d="M768.73,1563.57h23.02v18.09h-23.02v-18.09ZM728.43,1563.57h23.85v18.09h-23.85v-18.09Z"/>
    <path class="st2" d="M-197.48,1523.28c39.47,0,74.83,19.74,95.39,50.16v-8.22c-.82-51.81-43.58-93.74-95.39-93.74-13.98,0-25.49,11.51-25.49,26.31,0,13.98,11.51,25.49,25.49,25.49h0Z"/>
    <path class="st2" d="M-72.49,1558.64v121.7c-17.27-6.58-29.6-22.2-29.6-41.94v-62.5c-.82,9.87-12.33,14.8-18.91,5.76-17.27-23.85-45.23-38.65-76.47-38.65-52.63,0-95.39,42.76-95.39,95.39s42.76,95.39,95.39,95.39c20.56,0,39.47-5.76,55.09-17.27-12.33-12.34-20.56-27.96-26.32-44.41-7.4,6.58-17.27,10.69-28.78,10.69-24.67,0-44.4-19.73-44.4-44.4s19.73-43.58,44.4-43.58,44.4,19.74,44.4,43.58c0,52.63,42.76,95.39,95.39,95.39H-25.62v-175.15h-46.87Z"/>
    <path class="st2" d="M-49.46,1471.48c-18.09,0-32.89,15.62-32.89,33.71s14.8,32.89,32.89,32.89,33.71-14.8,33.71-32.89-14.8-33.71-33.71-33.71h0Z"/>
  </g>
  <g class="st4">
    <text class="st1" transform="translate(1605.79 2389.57)"><tspan x="0" y="0">×</tspan></text>
  </g>
</svg>